<?xml version="1.0" encoding="UTF-8" ?>
<!DOCTYPE svg PUBLIC "-//W3C//DTD SVG 1.1//EN" "http://www.w3.org/Graphics/SVG/1.1/DTD/svg11.dtd">
<svg width="1809pt" height="813pt" viewBox="0 0 1809 813" version="1.1" xmlns="http://www.w3.org/2000/svg">
<g id="#1d1d1dff">
<path fill="#1d1d1d" opacity="1.00" d=" M 895.23 0.00 L 907.69 0.00 C 937.23 0.56 966.75 2.02 996.24 3.77 C 1137.64 15.62 1276.59 50.39 1408.91 101.15 C 1445.59 115.15 1481.56 130.96 1516.96 147.94 C 1589.25 182.77 1658.75 224.17 1720.81 275.25 C 1725.64 279.02 1729.83 283.53 1734.28 287.74 C 1742.56 295.78 1750.84 303.83 1758.79 312.20 C 1779.21 333.67 1798.05 358.16 1805.74 387.27 C 1811.86 407.69 1805.88 429.65 1795.71 447.72 C 1780.03 475.27 1756.96 497.59 1733.29 518.28 C 1682.89 562.07 1625.38 596.55 1567.60 629.54 C 1535.60 647.58 1502.68 663.94 1469.35 679.36 C 1392.43 714.73 1312.57 743.63 1230.97 766.15 C 1152.32 786.79 1072.35 804.16 991.02 809.29 C 968.40 810.84 945.72 810.70 923.07 811.42 C 895.39 812.11 867.69 812.49 840.02 811.57 C 819.60 810.56 799.25 808.51 778.91 806.46 C 670.42 794.97 563.08 772.13 459.55 737.65 C 388.54 713.95 319.25 684.96 252.97 650.14 C 194.89 619.41 138.79 584.15 89.43 540.55 C 57.07 511.85 28.10 478.68 7.81 440.28 C 0.10 426.96 -1.63 410.48 2.78 395.77 C 5.11 387.32 10.13 380.05 14.56 372.61 C 35.91 338.35 63.33 308.21 93.54 281.57 C 123.20 255.25 155.84 232.54 189.16 211.12 C 281.80 152.08 383.05 107.52 487.10 72.82 C 526.60 59.49 566.75 48.19 607.23 38.24 C 688.09 18.43 770.76 5.16 854.04 2.04 C 867.74 0.90 881.48 0.24 895.23 0.00 M 698.94 57.31 C 663.79 64.80 628.70 72.69 594.01 82.14 C 474.16 115.11 359.85 167.17 254.94 233.69 C 209.26 262.72 165.15 294.29 123.29 328.61 C 141.16 344.48 155.33 365.13 161.48 388.39 C 166.80 407.89 164.33 428.91 156.73 447.46 C 148.35 467.33 134.05 483.84 119.73 499.65 C 118.64 500.58 118.69 501.41 119.87 502.15 C 190.99 555.36 266.70 602.66 346.87 641.03 C 424.15 678.01 505.02 707.54 588.14 728.36 C 655.65 745.37 724.55 756.84 793.92 762.75 C 821.88 764.98 849.88 766.93 877.93 767.22 C 951.90 768.26 1025.78 760.92 1098.69 748.80 C 1142.58 741.55 1186.04 731.73 1228.93 719.92 C 1390.83 675.12 1543.78 599.85 1680.29 502.23 C 1685.71 498.47 1691.26 494.57 1694.99 488.99 C 1677.95 478.91 1663.96 464.02 1654.16 446.88 C 1650.81 440.85 1647.43 434.73 1645.80 427.98 C 1642.06 413.56 1643.58 398.49 1645.60 383.93 C 1646.59 376.51 1649.32 369.41 1653.05 362.96 C 1661.72 347.99 1674.92 336.49 1685.66 323.11 C 1660.50 303.84 1635.00 285.01 1608.99 266.90 C 1548.22 224.44 1484.09 186.67 1416.96 155.17 C 1340.20 119.20 1259.80 91.07 1177.55 70.60 C 1155.71 64.91 1133.88 58.88 1111.49 55.72 C 1035.62 43.57 958.93 33.57 881.93 36.02 C 820.61 39.95 759.62 47.82 698.94 57.31 M 1720.14 358.23 C 1713.71 359.12 1707.82 362.14 1702.58 365.84 C 1686.28 377.42 1677.49 398.42 1680.32 418.15 C 1683.42 439.06 1699.71 458.34 1720.94 462.17 C 1731.82 464.28 1743.07 460.22 1751.81 453.81 C 1767.61 442.00 1776.66 421.17 1773.19 401.59 C 1772.05 395.94 1770.00 390.49 1767.73 385.21 C 1759.32 367.81 1739.72 355.35 1720.14 358.23 M 84.48 360.66 C 80.37 361.46 76.28 362.63 72.59 364.65 C 61.51 370.79 54.40 381.90 48.82 392.92 C 45.05 399.91 43.76 408.08 44.82 415.93 C 46.47 428.35 52.87 439.61 60.79 449.11 C 66.15 456.12 74.33 460.63 82.95 462.19 C 96.50 464.69 111.27 460.87 121.58 451.63 C 126.88 446.96 130.19 440.58 133.51 434.46 C 138.88 424.12 142.24 411.87 138.73 400.38 C 135.90 386.81 127.17 374.77 115.52 367.37 C 106.41 361.58 95.20 358.64 84.48 360.66 Z" />
<path fill="#1d1d1d" opacity="1.00" d=" M 855.05 102.84 C 880.36 95.83 906.75 93.69 932.93 93.88 C 960.34 93.69 988.70 97.50 1012.95 111.07 C 1023.69 116.81 1032.54 125.37 1040.82 134.17 C 1043.09 136.85 1045.89 139.27 1047.39 142.48 C 1049.68 159.57 1047.56 176.82 1048.04 193.99 C 1026.40 194.01 1004.76 193.99 983.12 194.00 C 982.33 187.73 981.34 181.37 978.55 175.63 C 970.83 158.49 953.77 147.08 935.86 142.84 C 922.38 139.37 908.11 140.74 894.98 144.95 C 885.57 148.24 877.63 154.42 869.02 159.23 C 868.97 269.83 869.01 380.43 869.00 491.04 C 868.73 540.75 869.53 590.46 869.84 640.17 C 870.10 640.19 870.64 640.24 870.90 640.27 C 871.22 646.39 874.08 652.23 878.54 656.41 C 885.34 662.95 894.18 666.80 902.83 670.25 C 922.94 674.59 945.15 674.64 963.72 664.74 C 973.13 659.39 982.14 651.66 985.48 641.01 C 989.03 630.73 988.10 619.72 988.26 609.04 C 988.47 563.03 988.60 517.02 988.02 471.02 C 987.40 464.60 985.52 458.41 983.55 452.30 C 956.45 445.92 928.09 453.92 901.07 446.95 C 897.31 432.23 903.71 417.63 908.17 403.82 C 954.76 404.53 1001.36 403.95 1047.95 404.09 C 1048.30 460.74 1048.23 517.39 1048.13 574.04 C 1047.98 607.34 1048.27 640.65 1048.05 673.94 C 1037.62 694.46 1019.73 711.45 998.19 719.80 C 957.80 720.33 917.38 721.40 876.99 720.03 C 866.22 719.62 855.07 721.19 844.73 717.39 C 831.96 712.80 821.98 702.91 813.73 692.46 C 811.54 689.16 808.24 686.43 807.42 682.40 C 804.00 669.56 802.37 656.26 802.01 643.00 C 800.67 600.37 801.05 557.71 801.00 515.07 C 800.46 389.02 801.32 262.98 800.81 136.93 C 800.53 135.23 801.99 134.12 802.95 132.96 C 816.67 117.79 835.56 108.28 855.05 102.84 Z" />
<path fill="#1d1d1d" opacity="1.00" d=" M 684.84 119.04 C 706.11 117.66 727.25 114.94 748.47 113.09 C 747.91 310.27 748.32 507.45 748.23 704.64 C 734.33 703.91 720.45 702.97 706.55 702.15 C 704.39 702.42 703.34 699.83 701.15 700.13 C 695.81 699.97 690.47 699.85 685.15 699.53 C 684.69 682.71 685.07 665.86 684.95 649.02 C 684.94 472.36 685.11 295.70 684.84 119.04 Z" />
<path fill="#1d1d1d" opacity="1.00" d=" M 1082.18 114.15 C 1093.81 112.73 1105.50 114.49 1116.94 116.62 C 1164.65 125.00 1212.40 134.02 1258.89 147.83 C 1280.03 154.19 1300.82 161.79 1320.91 170.98 C 1334.34 176.63 1345.55 186.25 1355.99 196.20 C 1355.96 343.35 1356.08 490.51 1355.93 637.66 C 1337.48 642.24 1319.78 649.74 1301.03 653.18 C 1301.14 595.80 1300.56 538.42 1300.34 481.04 C 1300.12 430.69 1299.97 380.35 1300.00 330.01 C 1299.77 305.02 1299.52 280.02 1299.36 255.03 C 1299.31 251.36 1299.55 247.59 1298.36 244.05 C 1294.19 229.53 1284.02 217.89 1274.36 206.70 C 1270.05 202.04 1263.20 202.74 1257.46 202.83 C 1256.67 208.53 1257.09 214.32 1256.57 220.05 C 1255.67 230.33 1256.08 240.66 1255.79 250.97 C 1255.48 280.99 1255.19 311.02 1254.67 341.03 C 1254.63 395.37 1254.36 449.71 1254.01 504.04 C 1254.03 559.33 1253.89 614.62 1253.86 669.91 C 1236.30 674.46 1218.58 678.47 1201.19 683.60 C 1200.92 658.06 1199.76 632.53 1200.00 606.98 C 1199.34 581.01 1199.01 555.04 1199.00 529.06 C 1199.12 506.04 1198.51 483.03 1198.44 460.01 C 1197.93 385.00 1198.03 309.98 1197.99 234.97 C 1197.81 227.82 1198.57 220.56 1196.57 213.60 C 1193.56 202.60 1186.51 193.35 1179.23 184.81 C 1175.01 179.86 1170.17 175.14 1164.01 172.73 C 1159.23 170.76 1153.00 171.27 1149.57 175.47 C 1145.43 182.57 1145.72 191.07 1145.54 199.01 C 1144.54 222.66 1145.13 246.37 1144.67 270.04 C 1143.81 331.37 1144.00 392.71 1144.00 454.04 C 1143.97 533.95 1144.05 613.85 1143.96 693.76 C 1122.96 697.89 1101.83 701.26 1080.88 705.59 C 1080.36 565.74 1080.80 425.89 1080.63 286.03 C 1080.49 257.36 1081.08 228.69 1081.00 200.02 C 1081.08 178.00 1080.74 155.96 1081.64 133.95 C 1082.14 127.36 1081.91 120.75 1082.18 114.15 Z" />
<path fill="#1d1d1d" opacity="1.00" d=" M 535.62 158.64 C 544.31 156.66 553.11 155.04 562.00 154.26 C 587.81 153.30 614.43 165.11 629.29 186.58 C 631.60 189.52 631.99 193.35 632.85 196.87 C 634.43 203.81 635.01 210.90 635.79 217.96 C 637.43 262.30 636.84 306.68 636.99 351.05 C 636.94 439.38 637.19 527.71 636.64 616.05 C 636.56 641.10 635.91 666.15 635.98 691.20 C 612.44 685.19 589.23 677.94 566.05 670.68 C 565.91 614.13 566.05 557.57 566.00 501.02 C 565.92 449.68 566.21 398.34 565.82 347.00 C 565.51 316.68 565.01 286.36 565.00 256.04 C 565.14 247.36 564.68 238.45 561.75 230.21 C 559.11 223.07 553.67 216.11 545.80 214.68 C 533.33 211.24 520.19 213.92 508.34 218.36 C 500.67 221.32 493.20 224.89 486.13 229.09 C 485.59 241.37 486.01 253.73 485.83 266.04 C 485.49 380.36 486.29 494.68 485.00 609.00 C 484.96 619.72 485.08 630.44 484.87 641.16 C 464.54 634.49 444.89 625.96 425.05 617.98 C 422.35 585.41 421.96 552.67 422.12 519.98 C 422.02 415.99 421.97 312.01 422.09 208.03 C 457.50 186.69 495.09 167.90 535.62 158.64 Z" />
<path fill="#1d1d1d" opacity="1.00" d=" M 372.97 226.18 C 375.84 224.51 378.47 222.40 381.54 221.09 C 382.26 235.06 382.04 249.06 381.73 263.05 C 381.56 269.11 380.78 275.15 380.99 281.22 C 343.23 302.45 306.39 325.28 268.95 347.07 C 268.97 361.46 268.95 375.86 268.89 390.26 C 293.81 391.29 318.76 390.82 343.69 391.77 C 343.64 408.81 345.23 426.11 342.00 442.96 C 330.01 442.84 318.01 442.97 306.02 443.00 C 293.75 442.87 281.49 443.85 269.23 443.56 C 268.65 458.94 269.07 474.38 268.94 489.78 C 307.70 509.27 345.44 530.78 384.59 549.52 C 385.12 568.87 385.33 588.28 384.24 607.60 C 384.03 607.66 383.62 607.78 383.42 607.84 C 328.57 579.48 273.76 551.02 218.60 523.27 C 217.01 522.43 215.40 521.61 213.69 521.08 C 212.79 498.09 213.23 475.05 213.15 452.03 C 213.22 410.73 214.28 369.43 213.99 328.12 C 267.03 294.21 319.70 259.72 372.97 226.18 Z" />
<path fill="#1d1d1d" opacity="1.00" d=" M 1449.99 229.08 C 1453.36 225.66 1458.72 226.86 1462.99 227.29 C 1471.29 229.52 1479.01 233.46 1486.71 237.23 C 1519.33 253.77 1550.32 273.29 1581.41 292.47 C 1581.88 369.90 1582.19 447.34 1581.93 524.77 C 1562.90 535.83 1544.33 547.69 1525.28 558.72 C 1524.43 534.16 1524.32 509.58 1524.63 485.01 C 1524.44 481.57 1525.08 478.06 1524.33 474.69 C 1500.76 486.06 1476.36 495.63 1452.86 507.15 C 1452.83 519.12 1452.54 531.09 1452.01 543.05 C 1452.25 556.06 1450.87 569.02 1450.84 582.02 C 1450.42 586.13 1450.91 590.49 1449.75 594.46 C 1431.45 603.46 1412.45 610.91 1394.01 619.59 C 1393.84 589.38 1393.57 559.17 1393.59 528.96 C 1393.55 504.64 1394.08 480.33 1394.07 456.02 C 1394.00 442.00 1395.07 428.02 1395.05 414.01 C 1395.14 408.38 1395.32 402.76 1395.75 397.15 C 1396.38 389.62 1395.49 382.01 1396.66 374.50 C 1398.57 352.05 1404.15 330.09 1410.39 308.50 C 1415.62 290.50 1421.43 272.55 1429.69 255.68 C 1434.76 245.70 1441.27 236.22 1449.99 229.08 M 1470.81 304.96 C 1465.16 313.62 1461.58 323.48 1459.34 333.53 C 1449.77 372.92 1450.15 413.70 1448.46 453.95 C 1455.35 450.64 1461.75 446.38 1468.43 442.65 C 1487.24 431.69 1505.85 420.39 1524.72 409.54 C 1525.05 378.34 1524.40 347.12 1525.01 315.92 C 1513.79 307.01 1502.31 297.23 1488.02 293.88 C 1480.75 294.02 1474.66 299.15 1470.81 304.96 Z" />
</g>
<g id="#ffffffff">
<path fill="#ffffff" opacity="1.00" d=" M 698.94 57.31 C 759.62 47.82 820.61 39.95 881.93 36.02 C 958.93 33.57 1035.62 43.57 1111.49 55.72 C 1133.88 58.88 1155.71 64.91 1177.55 70.60 C 1259.80 91.07 1340.20 119.20 1416.96 155.17 C 1484.09 186.67 1548.22 224.44 1608.99 266.90 C 1635.00 285.01 1660.50 303.84 1685.66 323.11 C 1674.92 336.49 1661.72 347.99 1653.05 362.96 C 1649.32 369.41 1646.59 376.51 1645.60 383.93 C 1643.58 398.49 1642.06 413.56 1645.80 427.98 C 1647.43 434.73 1650.81 440.85 1654.16 446.88 C 1663.96 464.02 1677.95 478.91 1694.99 488.99 C 1691.26 494.57 1685.71 498.47 1680.29 502.23 C 1543.78 599.85 1390.83 675.12 1228.93 719.92 C 1186.04 731.73 1142.58 741.55 1098.69 748.80 C 1025.78 760.92 951.90 768.26 877.93 767.22 C 849.88 766.93 821.88 764.98 793.92 762.75 C 724.55 756.84 655.65 745.37 588.14 728.36 C 505.02 707.54 424.15 678.01 346.87 641.03 C 266.70 602.66 190.99 555.36 119.87 502.15 C 118.69 501.41 118.64 500.58 119.73 499.65 C 134.05 483.84 148.35 467.33 156.73 447.46 C 164.33 428.91 166.80 407.89 161.48 388.39 C 155.33 365.13 141.16 344.48 123.29 328.61 C 165.15 294.29 209.26 262.72 254.94 233.69 C 359.85 167.17 474.16 115.11 594.01 82.14 C 628.70 72.69 663.79 64.80 698.94 57.31 M 855.05 102.84 C 835.56 108.28 816.67 117.79 802.95 132.96 C 801.99 134.12 800.53 135.23 800.81 136.93 C 801.32 262.98 800.46 389.02 801.00 515.07 C 801.05 557.71 800.67 600.37 802.01 643.00 C 802.37 656.26 804.00 669.56 807.42 682.40 C 808.24 686.43 811.54 689.16 813.73 692.46 C 821.98 702.91 831.96 712.80 844.73 717.39 C 855.07 721.19 866.22 719.62 876.99 720.03 C 917.38 721.40 957.80 720.33 998.19 719.80 C 1019.73 711.45 1037.62 694.46 1048.05 673.94 C 1048.27 640.65 1047.98 607.34 1048.13 574.04 C 1048.23 517.39 1048.30 460.74 1047.95 404.09 C 1001.36 403.95 954.76 404.53 908.17 403.82 C 903.71 417.63 897.31 432.23 901.07 446.95 C 928.09 453.92 956.45 445.92 983.55 452.30 C 985.52 458.41 987.40 464.60 988.02 471.02 C 988.60 517.02 988.47 563.03 988.26 609.04 C 988.10 619.72 989.03 630.73 985.48 641.01 C 982.14 651.66 973.13 659.39 963.72 664.74 C 945.15 674.64 922.94 674.59 902.83 670.25 C 894.18 666.80 885.34 662.95 878.54 656.41 C 874.08 652.23 871.22 646.39 870.90 640.27 C 870.64 640.24 870.10 640.19 869.84 640.17 C 869.53 590.46 868.73 540.75 869.00 491.04 C 869.01 380.43 868.97 269.83 869.02 159.23 C 877.63 154.42 885.57 148.24 894.98 144.95 C 908.11 140.74 922.38 139.37 935.86 142.84 C 953.77 147.08 970.83 158.49 978.55 175.63 C 981.34 181.37 982.33 187.73 983.12 194.00 C 1004.76 193.99 1026.40 194.01 1048.04 193.99 C 1047.56 176.82 1049.68 159.57 1047.39 142.48 C 1045.89 139.27 1043.09 136.85 1040.82 134.17 C 1032.54 125.37 1023.69 116.81 1012.95 111.07 C 988.70 97.50 960.34 93.69 932.93 93.88 C 906.75 93.69 880.36 95.83 855.05 102.84 M 684.84 119.04 C 685.11 295.70 684.94 472.36 684.95 649.02 C 685.07 665.86 684.69 682.71 685.15 699.53 C 690.47 699.85 695.81 699.97 701.15 700.13 C 703.34 699.83 704.39 702.42 706.55 702.15 C 720.45 702.97 734.33 703.91 748.23 704.64 C 748.32 507.45 747.91 310.27 748.47 113.09 C 727.25 114.94 706.11 117.66 684.84 119.04 M 1082.18 114.15 C 1081.91 120.75 1082.14 127.36 1081.64 133.95 C 1080.74 155.96 1081.08 178.00 1081.00 200.02 C 1081.08 228.69 1080.49 257.36 1080.63 286.03 C 1080.80 425.89 1080.36 565.74 1080.88 705.59 C 1101.83 701.26 1122.96 697.89 1143.96 693.76 C 1144.05 613.85 1143.97 533.95 1144.00 454.04 C 1144.00 392.71 1143.81 331.37 1144.67 270.04 C 1145.13 246.37 1144.54 222.66 1145.54 199.01 C 1145.72 191.07 1145.43 182.57 1149.57 175.47 C 1153.00 171.27 1159.23 170.76 1164.01 172.73 C 1170.17 175.14 1175.01 179.86 1179.23 184.81 C 1186.51 193.35 1193.56 202.60 1196.57 213.60 C 1198.57 220.56 1197.81 227.82 1197.99 234.97 C 1198.03 309.98 1197.93 385.00 1198.44 460.01 C 1198.51 483.03 1199.12 506.04 1199.00 529.06 C 1199.01 555.04 1199.34 581.01 1200.00 606.98 C 1199.76 632.53 1200.92 658.06 1201.19 683.60 C 1218.58 678.47 1236.30 674.46 1253.86 669.91 C 1253.89 614.62 1254.03 559.33 1254.01 504.04 C 1254.36 449.71 1254.63 395.37 1254.67 341.03 C 1255.19 311.02 1255.48 280.99 1255.79 250.97 C 1256.08 240.66 1255.67 230.33 1256.57 220.05 C 1257.09 214.32 1256.67 208.53 1257.46 202.83 C 1263.20 202.74 1270.05 202.04 1274.36 206.70 C 1284.02 217.89 1294.19 229.53 1298.36 244.05 C 1299.55 247.59 1299.31 251.36 1299.36 255.03 C 1299.52 280.02 1299.77 305.02 1300.00 330.01 C 1299.97 380.35 1300.12 430.69 1300.34 481.04 C 1300.56 538.42 1301.14 595.80 1301.03 653.18 C 1319.78 649.74 1337.48 642.24 1355.93 637.66 C 1356.08 490.51 1355.96 343.35 1355.99 196.20 C 1345.55 186.25 1334.34 176.63 1320.91 170.98 C 1300.82 161.79 1280.03 154.19 1258.89 147.83 C 1212.40 134.02 1164.65 125.00 1116.94 116.62 C 1105.50 114.49 1093.81 112.73 1082.18 114.15 M 535.62 158.64 C 495.09 167.90 457.50 186.69 422.09 208.03 C 421.97 312.01 422.02 415.99 422.12 519.98 C 421.96 552.67 422.35 585.41 425.05 617.98 C 444.89 625.96 464.54 634.49 484.87 641.16 C 485.08 630.44 484.96 619.72 485.00 609.00 C 486.29 494.68 485.49 380.36 485.83 266.04 C 486.01 253.73 485.59 241.37 486.13 229.09 C 493.20 224.89 500.67 221.32 508.34 218.36 C 520.19 213.92 533.33 211.24 545.80 214.68 C 553.67 216.11 559.11 223.07 561.75 230.21 C 564.68 238.45 565.14 247.36 565.00 256.04 C 565.01 286.36 565.51 316.68 565.82 347.00 C 566.21 398.34 565.92 449.68 566.00 501.02 C 566.05 557.57 565.91 614.13 566.05 670.68 C 589.23 677.94 612.44 685.19 635.98 691.20 C 635.91 666.15 636.56 641.10 636.64 616.05 C 637.19 527.71 636.94 439.38 636.99 351.05 C 636.84 306.68 637.43 262.30 635.79 217.96 C 635.01 210.90 634.43 203.81 632.85 196.87 C 631.99 193.35 631.60 189.52 629.29 186.58 C 614.43 165.11 587.81 153.30 562.00 154.26 C 553.11 155.04 544.31 156.66 535.62 158.64 M 372.97 226.18 C 319.70 259.72 267.03 294.21 213.99 328.12 C 214.28 369.43 213.22 410.73 213.15 452.03 C 213.23 475.05 212.79 498.09 213.69 521.08 C 215.40 521.61 217.01 522.43 218.60 523.27 C 273.76 551.02 328.57 579.48 383.42 607.84 C 383.62 607.78 384.03 607.66 384.24 607.60 C 385.33 588.28 385.12 568.87 384.59 549.52 C 345.44 530.78 307.70 509.27 268.94 489.78 C 269.07 474.38 268.65 458.94 269.23 443.56 C 281.49 443.85 293.75 442.87 306.02 443.00 C 318.01 442.97 330.01 442.84 342.00 442.96 C 345.23 426.11 343.64 408.81 343.69 391.77 C 318.76 390.82 293.81 391.29 268.89 390.26 C 268.95 375.86 268.97 361.46 268.95 347.07 C 306.39 325.28 343.23 302.45 380.99 281.22 C 380.78 275.15 381.56 269.11 381.73 263.05 C 382.04 249.06 382.26 235.06 381.54 221.09 C 378.47 222.40 375.84 224.51 372.97 226.18 M 1449.99 229.08 C 1441.27 236.22 1434.76 245.70 1429.69 255.68 C 1421.43 272.55 1415.62 290.50 1410.39 308.50 C 1404.15 330.09 1398.57 352.05 1396.66 374.50 C 1395.49 382.01 1396.38 389.62 1395.75 397.15 C 1395.32 402.76 1395.14 408.38 1395.05 414.01 C 1395.07 428.02 1394.00 442.00 1394.07 456.02 C 1394.08 480.33 1393.55 504.64 1393.59 528.96 C 1393.57 559.17 1393.84 589.38 1394.01 619.59 C 1412.45 610.91 1431.45 603.46 1449.75 594.46 C 1450.91 590.49 1450.42 586.13 1450.84 582.02 C 1450.87 569.02 1452.25 556.06 1452.01 543.05 C 1452.54 531.09 1452.83 519.12 1452.86 507.15 C 1476.36 495.63 1500.76 486.06 1524.33 474.69 C 1525.08 478.06 1524.44 481.57 1524.63 485.01 C 1524.32 509.58 1524.43 534.16 1525.28 558.72 C 1544.33 547.69 1562.90 535.83 1581.93 524.77 C 1582.19 447.34 1581.88 369.90 1581.41 292.47 C 1550.32 273.29 1519.33 253.77 1486.71 237.23 C 1479.01 233.46 1471.29 229.52 1462.99 227.29 C 1458.72 226.86 1453.36 225.66 1449.99 229.08 Z" />
<path fill="#ffffff" opacity="1.00" d=" M 1470.81 304.96 C 1474.66 299.15 1480.75 294.02 1488.02 293.88 C 1502.31 297.23 1513.79 307.01 1525.01 315.92 C 1524.40 347.12 1525.05 378.34 1524.72 409.54 C 1505.85 420.39 1487.24 431.69 1468.43 442.65 C 1461.75 446.38 1455.35 450.64 1448.46 453.95 C 1450.15 413.70 1449.77 372.92 1459.34 333.53 C 1461.58 323.48 1465.16 313.62 1470.81 304.96 Z" />
<path fill="#ffffff" opacity="1.00" d=" M 1720.14 358.23 C 1739.72 355.35 1759.32 367.81 1767.73 385.21 C 1770.00 390.49 1772.05 395.94 1773.19 401.59 C 1776.66 421.17 1767.61 442.00 1751.81 453.81 C 1743.07 460.22 1731.82 464.28 1720.94 462.17 C 1699.71 458.34 1683.42 439.06 1680.32 418.15 C 1677.49 398.42 1686.28 377.42 1702.58 365.84 C 1707.82 362.14 1713.71 359.12 1720.14 358.23 Z" />
<path fill="#ffffff" opacity="1.00" d=" M 84.48 360.66 C 95.20 358.64 106.41 361.58 115.52 367.37 C 127.17 374.77 135.90 386.81 138.73 400.38 C 142.24 411.87 138.88 424.12 133.51 434.46 C 130.19 440.58 126.88 446.96 121.58 451.63 C 111.27 460.87 96.50 464.69 82.95 462.19 C 74.33 460.63 66.15 456.12 60.79 449.11 C 52.87 439.61 46.47 428.35 44.82 415.93 C 43.76 408.08 45.05 399.91 48.82 392.92 C 54.40 381.90 61.51 370.79 72.59 364.65 C 76.28 362.63 80.37 361.46 84.48 360.66 Z" />
</g>
</svg>
